
<svg xmlns="http://www.w3.org/2000/svg"
 width="24" height="24" viewBox="0 0 50.000000 50.000000">
<g transform="translate(0.000000,50.000000) scale(0.100000,-0.100000)"
fill="#72e2ae" stroke="none">
<path fill="none" d="M0 0h24v24H0z"/>
<path d="M24 437 c-2 -7 -3 -80 -2 -162 l3 -150 83 -3 c62 -2 82 -6 82 -17 0
-8 -12 -15 -27 -17 -20 -2 -29 -9 -31 -25 -3 -22 -1 -23 77 -23 102 0 109 19
9 22 l-73 2 68 3 c68 4 96 23 32 23 -24 0 -35 5 -35 15 0 10 10 15 34 15 19 0
38 4 41 10 4 6 -38 10 -119 10 -119 0 -126 1 -126 20 0 19 7 20 139 20 83 0
142 4 146 10 4 6 -45 10 -139 10 l-146 0 0 115 0 115 210 0 210 0 0 -114 c0
-68 4 -117 10 -121 7 -4 10 36 8 122 l-3 128 -223 3 c-176 2 -224 0 -228 -11z"/>
<path d="M351 186 c-87 -48 -50 -186 49 -186 51 0 100 49 100 99 0 75 -83 124
-149 87z m104 -31 c50 -49 15 -135 -55 -135 -41 0 -80 39 -80 80 0 70 86 105
135 55z"/>
<path d="M410 135 c-10 -12 -10 -18 0 -30 19 -23 27 -18 27 15 0 33 -8 38 -27
15z"/>
<path d="M363 80 c0 -33 8 -38 27 -15 10 12 10 18 0 30 -19 23 -27 18 -27 -15z"/>
</g>
</svg>
